<svg xmlns="http://www.w3.org/2000/svg" viewBox="0 0 64 64" fill="none">
  <rect width="64" height="64" rx="12" fill="#6C3AED"/>
  <path d="M20 16h16a2 2 0 0 1 2 2v4l8 8v16a2 2 0 0 1-2 2H20a2 2 0 0 1-2-2V18a2 2 0 0 1 2-2z" fill="white" opacity="0.9"/>
  <path d="M36 16v8a2 2 0 0 0 2 2h8" fill="none" stroke="white" stroke-width="2" stroke-linecap="round"/>
  <path d="M24 32h16M24 37h12M24 42h8" stroke="#6C3AED" stroke-width="2" stroke-linecap="round"/>
  <circle cx="44" cy="44" r="10" fill="#10B981"/>
  <path d="M44 39v6M41 44l3 3 3-3" stroke="white" stroke-width="2" stroke-linecap="round" stroke-linejoin="round"/>
  <text x="42" y="49" font-family="monospace" font-size="5" fill="white" text-anchor="middle">{}</text>
</svg>
